<svg xmlns="http://www.w3.org/2000/svg" width="1200" height="630" viewBox="0 0 1200 630" role="img" aria-label="Mosaiq social preview">
  <defs>
    <pattern id="grid" width="44" height="44" patternUnits="userSpaceOnUse">
      <path d="M44 0H0V44" fill="none" stroke="#d7ddd4" stroke-width="1"/>
    </pattern>
  </defs>
  <rect width="1200" height="630" fill="#f6f7f4"/>
  <rect width="1200" height="630" fill="url(#grid)" opacity="0.9"/>
  <g transform="translate(86 78)">
    <rect width="38" height="38" rx="8" fill="#fff" stroke="#d7ddd4"/>
    <rect x="9" y="9" width="8" height="8" rx="2" fill="#237a58"/>
    <rect x="21" y="9" width="8" height="8" rx="2" fill="#2e6f73"/>
    <rect x="9" y="21" width="8" height="8" rx="2" fill="#b57a1d"/>
    <rect x="21" y="21" width="8" height="8" rx="2" fill="#6c5e9e"/>
    <text x="54" y="26" font-family="Inter, Segoe UI, Arial, sans-serif" font-size="22" font-weight="800" fill="#101411">Mosaiq</text>
  </g>
  <text x="86" y="208" font-family="Inter, Segoe UI, Arial, sans-serif" font-size="76" font-weight="850" fill="#101411">Browser infrastructure</text>
  <text x="86" y="292" font-family="Inter, Segoe UI, Arial, sans-serif" font-size="76" font-weight="850" fill="#101411">for agentic automation</text>
  <text x="88" y="365" font-family="Inter, Segoe UI, Arial, sans-serif" font-size="30" font-weight="500" fill="#3f4942">Persona-based anti-detection, Detection Lab evidence,</text>
  <text x="88" y="408" font-family="Inter, Segoe UI, Arial, sans-serif" font-size="30" font-weight="500" fill="#3f4942">CLI workflows, and Browserbase-compatible cloud sessions.</text>
  <g transform="translate(86 474)">
    <rect width="190" height="48" rx="8" fill="#101411"/>
    <text x="24" y="31" font-family="Inter, Segoe UI, Arial, sans-serif" font-size="17" font-weight="800" fill="#ffffff">Detection Lab</text>
    <rect x="208" width="132" height="48" rx="8" fill="#fff" stroke="#d7ddd4"/>
    <text x="232" y="31" font-family="Inter, Segoe UI, Arial, sans-serif" font-size="17" font-weight="800" fill="#237a58">12/12 OK</text>
    <rect x="358" width="160" height="48" rx="8" fill="#fff" stroke="#d7ddd4"/>
    <text x="382" y="31" font-family="Inter, Segoe UI, Arial, sans-serif" font-size="17" font-weight="800" fill="#b57a1d">0.5 hits</text>
  </g>
</svg>
